<?xml version="1.0"?>
<!DOCTYPE svg PUBLIC "-//W3C//DTD SVG 1.1//EN" "http://www.w3.org/Graphics/SVG/1.1/DTD/svg11.dtd">
<svg width="151.46908201645468mm" height="154.60380774094085mm" viewBox="0 0 151.46908201645468 154.60380774094085" xmlns="http://www.w3.org/2000/svg" version="1.1">
<g id="Sketch046" transform="translate(65.980959,63.818006) scale(1,-1)">
<path id="Sketch046_w0000"  d="M 81.00313219434857 59.27959808412195 L 81.003132 55.779598 L 84.00313219434855 55.83301074170861 L 84.00313219434855 46.33528895881953 L -48.468567 43.97435184744765 L -48.468567 -71.01156915079986 L 81.0042340000038 -73.30893104608269 L 81.0042340000038 -89.30081102413834 L -49.49575082447859 -86.98570640250767 A 15 15 0 0 0 -64.4958 -71.9857L -64.4959678217835 44.95599060125406 A 15 15 0 0 0 -49.496 59.956L 84.00313219434855 62.33301471647988 L 84.00313219434855 59.33301080199351 L 81.00313219434857 59.27959808412195 " stroke="#000000" stroke-width="0.35 px" style="stroke-width:0.35;stroke-miterlimit:4;stroke-dasharray:none;fill:none;fill-rule: evenodd "/>
<path id="Sketch046_w0001"  d="M 76.10231021135706 53.14614393700943 L 76.10231021135706 56.14614393700943 L 73.50423400000375 57.64614393700943 L 70.90615778865043 56.14614393700943 L 70.90615778865043 53.14614393700943 L 73.50423400000375 51.64614393700943 L 76.10231021135706 53.14614393700943 " stroke="#000000" stroke-width="0.35 px" style="stroke-width:0.35;stroke-miterlimit:4;stroke-dasharray:none;fill:none;fill-rule: evenodd "/>
<path id="Sketch046_w0002"  d="M -52.39768878864669 48.956229 L -52.39768878864669 51.956229 L -54.995765000000006 53.456229 L -57.59384121135332 51.956229 L -57.59384121135332 48.956229 L -54.995765000000006 47.456229 L -52.39768878864669 48.956229 " stroke="#000000" stroke-width="0.35 px" style="stroke-width:0.35;stroke-miterlimit:4;stroke-dasharray:none;fill:none;fill-rule: evenodd "/>
<path id="Sketch046_w0003"  d="M -54.39768878864668 -12.008857500000001 L -56.995765 -10.508857500000001 L -59.593841211353315 -12.008857500000001 L -59.593841211353315 -15.008857500000001 L -56.995765 -16.5088575 L -54.39768878864668 -15.008857500000001 L -54.39768878864668 -12.008857500000001 " stroke="#000000" stroke-width="0.35 px" style="stroke-width:0.35;stroke-miterlimit:4;stroke-dasharray:none;fill:none;fill-rule: evenodd "/>
<path id="Sketch046_w0004"  d="M -52.397688788646626 -78.97394399999995 L -52.39768878864659 -75.97394399999989 L -54.995764999999984 -74.47394399999997 L -57.593841211353315 -75.973944 L -57.593841211353315 -78.97394400000003 L -54.995764999999935 -80.473944 L -52.397688788646626 -78.97394399999995 " stroke="#000000" stroke-width="0.35 px" style="stroke-width:0.35;stroke-miterlimit:4;stroke-dasharray:none;fill:none;fill-rule: evenodd "/>
<path id="Sketch046_w0005"  d="M 76.10231021135709 -83.17539925153184 L 76.1023102113571 -80.1753992515318 L 73.50423400000375 -78.67539925153181 L 70.90615778865042 -80.1753992515319 L 70.90615778865042 -83.17539925153193 L 73.50423400000378 -84.67539925153191 L 76.10231021135709 -83.17539925153184 " stroke="#000000" stroke-width="0.35 px" style="stroke-width:0.35;stroke-miterlimit:4;stroke-dasharray:none;fill:none;fill-rule: evenodd "/>
<title>b'Sketch046'</title>
</g>
</svg>