<?xml version="1.0"?>
<!DOCTYPE svg PUBLIC "-//W3C//DTD SVG 1.1//EN" "http://www.w3.org/Graphics/SVG/1.1/DTD/svg11.dtd">
<svg width="271.50925578645655mm" height="89.40403540205737mm" viewBox="0 0 271.50925578645655 89.40403540205737" xmlns="http://www.w3.org/2000/svg" version="1.1">
<g id="Sketch048" transform="translate(67.157823,65.733322) scale(1,-1)">
<path id="Sketch048_w0000"  d="M -49.49596782178349 59.95599060125406 A 15 15 0 0 1 -64.496 44.956L -64.49584541724685 -21.008857500000005 L -48.46856700000051 -21.008857500000005 L -48.468567 43.97435184744765 L 125.47629800000001 47.08245715739008 A 60.5916 60.5916 0 0 0 185.603 -6.00915L 201.6895770668994 -6.009147000000006 A 76.5806 76.5806 0 0 1 125.476 63.0715L -49.49596782178349 59.95599060125406 " stroke="#000000" stroke-width="0.35 px" style="stroke-width:0.35;stroke-miterlimit:4;stroke-dasharray:none;fill:none;fill-rule: evenodd "/>
<path id="Sketch048_w0001"  d="M 120.996794 56.491655 L 81.003132 55.779598 L 81.00313219434857 59.27959808412195 L 120.99679388247438 59.99165480692137 L 120.996794 56.491655 " stroke="#000000" stroke-width="0.35 px" style="stroke-width:0.35;stroke-miterlimit:4;stroke-dasharray:none;fill:none;fill-rule: evenodd "/>
<path id="Sketch048_w0002"  d="M -54.39768878864668 -15.008857500000001 L -54.39768878864668 -12.008857500000001 L -56.995765 -10.508857500000001 L -59.593841211353315 -12.008857500000001 L -59.593841211353315 -15.008857500000001 L -56.995765 -16.5088575 L -54.39768878864668 -15.008857500000001 " stroke="#000000" stroke-width="0.35 px" style="stroke-width:0.35;stroke-miterlimit:4;stroke-dasharray:none;fill:none;fill-rule: evenodd "/>
<path id="Sketch048_w0003"  d="M -52.397688788639236 48.95622899999823 L -52.397688788641396 51.956228999997414 L -54.9957649999926 53.45622900000011 L -57.59384121135448 51.956228999998366 L -57.59384121135448 48.95622899999941 L -54.99576500000264 47.456228999997684 L -52.397688788639236 48.95622899999823 " stroke="#000000" stroke-width="0.35 px" style="stroke-width:0.35;stroke-miterlimit:4;stroke-dasharray:none;fill:none;fill-rule: evenodd "/>
<path id="Sketch048_w0004"  d="M 76.10231021135706 53.14614393700943 L 76.10231021135706 56.14614393700943 L 73.50423400000375 57.64614393700943 L 70.90615778865043 56.14614393700943 L 70.90615778865043 53.14614393700943 L 73.50423400000375 51.64614393700943 L 76.10231021135706 53.14614393700943 " stroke="#000000" stroke-width="0.35 px" style="stroke-width:0.35;stroke-miterlimit:4;stroke-dasharray:none;fill:none;fill-rule: evenodd "/>
<path id="Sketch048_w0005"  d="M 157.02453514059124 47.07293641201053 L 157.02453514059124 50.07293641201053 L 154.42645892923792 51.57293641201053 L 151.8283827178846 50.07293641201053 L 151.8283827178846 47.07293641201053 L 154.42645892923792 45.57293641201053 L 157.02453514059124 47.07293641201053 " stroke="#000000" stroke-width="0.35 px" style="stroke-width:0.35;stroke-miterlimit:4;stroke-dasharray:none;fill:none;fill-rule: evenodd "/>
<title>b'Sketch048'</title>
</g>
</svg>