<?xml version="1.0"?>
<!DOCTYPE svg PUBLIC "-//W3C//DTD SVG 1.1//EN" "http://www.w3.org/Graphics/SVG/1.1/DTD/svg11.dtd">
<svg width="271.5092557864565mm" height="89.40403540205737mm" viewBox="0 0 271.5092557864565 89.40403540205737" xmlns="http://www.w3.org/2000/svg" version="1.1">
<g id="Sketch040" transform="translate(67.157823,65.733322) scale(1,-1)">
<path id="Sketch040_w0000"  d="M 185.59152604139683 -6.009147000000001 L 201.68957706689937 -6.009146999999992 A 76.5806 76.5806 0 0 1 125.476 63.0715L -49.49596782178349 59.95599060125406 A 15 15 0 0 1 -64.496 44.956L -64.49584541724684 -21.008857500000005 L -48.46856700000051 -21.008857500000005 L -48.46856700000051 43.97435184744765 L 125.47710799999999 47.071322265728035 A 60.5805 60.5805 0 0 0 185.592 -6.00915" stroke="#000000" stroke-width="0.35 px" style="stroke-width:0.35;stroke-miterlimit:4;stroke-dasharray:none;fill:none;fill-rule: evenodd "/>
<path id="Sketch040_w0001"  d="M -52.39768878864677 51.95622900000083 L -54.99576500000099 53.456229000000256 L -57.59384121135352 51.95622899999974 L -57.59384121135352 48.9562290000002 L -54.995764999997476 47.456228999999276 L -52.3976887886453 48.956229000000675 L -52.39768878864677 51.95622900000083 " stroke="#000000" stroke-width="0.35 px" style="stroke-width:0.35;stroke-miterlimit:4;stroke-dasharray:none;fill:none;fill-rule: evenodd "/>
<path id="Sketch040_w0002"  d="M -54.39768878864668 -15.008857500000001 L -54.39768878864668 -12.008857500000001 L -56.995765 -10.508857500000001 L -59.593841211353315 -12.008857500000001 L -59.593841211353315 -15.008857500000001 L -56.995765 -16.5088575 L -54.39768878864668 -15.008857500000001 " stroke="#000000" stroke-width="0.35 px" style="stroke-width:0.35;stroke-miterlimit:4;stroke-dasharray:none;fill:none;fill-rule: evenodd "/>
<path id="Sketch040_w0003"  d="M 73.50423400000375 51.64614393700943 L 76.10231021135706 53.14614393700943 L 76.10231021135706 56.14614393700943 L 73.50423400000375 57.64614393700943 L 70.90615778865043 56.14614393700943 L 70.90615778865043 53.14614393700943 L 73.50423400000375 51.64614393700943 " stroke="#000000" stroke-width="0.35 px" style="stroke-width:0.35;stroke-miterlimit:4;stroke-dasharray:none;fill:none;fill-rule: evenodd "/>
<path id="Sketch040_w0004"  d="M 157.02453514059124 47.07293641201053 L 157.02453514059124 50.07293641201053 L 154.42645892923792 51.57293641201053 L 151.8283827178846 50.07293641201053 L 151.8283827178846 47.07293641201053 L 154.42645892923792 45.57293641201053 L 157.02453514059124 47.07293641201053 " stroke="#000000" stroke-width="0.35 px" style="stroke-width:0.35;stroke-miterlimit:4;stroke-dasharray:none;fill:none;fill-rule: evenodd "/>
<title>b'Sketch040'</title>
</g>
</svg>