<?xml version="1.0"?>
<!DOCTYPE svg PUBLIC "-//W3C//DTD SVG 1.1//EN" "http://www.w3.org/Graphics/SVG/1.1/DTD/svg11.dtd">
<svg width="271.50903444920584mm" height="89.40461006211127mm" viewBox="0 0 271.50903444920584 89.40461006211127" xmlns="http://www.w3.org/2000/svg" version="1.1">
<g id="Sketch041" transform="translate(67.157604,-3.347004) scale(1,-1)">
<path id="Sketch041_w0000"  d="M -48.46856700000051 -71.01156915079986 L -48.46856700000051 -6.008857500000005 L -64.49575082447889 -6.008857500000005 L -64.49575082447889 -71.98570640250782 A 15 15 0 0 1 -49.4958 -86.9857L 125.47650499999997 -90.08976100190968 A 76.5806 76.5806 0 0 1 201.69 -21.0091L 185.61058518966834 -21.00914700000002 A 60.5994 60.5994 0 0 0 125.477 -74.1085L -48.46856700000051 -71.01156915079986 " stroke="#000000" stroke-width="0.35 px" style="stroke-width:0.35;stroke-miterlimit:4;stroke-dasharray:none;fill:none;fill-rule: evenodd "/>
<path id="Sketch041_w0001"  d="M -54.39768878864657 -15.008857499999964 L -54.39768878864669 -12.008857499999944 L -56.995765000000034 -10.508857500000001 L -59.59384121135333 -12.008857500000008 L -59.59384121135333 -15.008857499999994 L -56.995764999999885 -16.508857500000026 L -54.39768878864657 -15.008857499999964 " stroke="#000000" stroke-width="0.35 px" style="stroke-width:0.35;stroke-miterlimit:4;stroke-dasharray:none;fill:none;fill-rule: evenodd "/>
<path id="Sketch041_w0002"  d="M -52.39768878864668 -78.973944 L -52.39768878864668 -75.973944 L -54.995765 -74.473944 L -57.593841211353315 -75.973944 L -57.593841211353315 -78.973944 L -54.995765 -80.473944 L -52.39768878864668 -78.973944 " stroke="#000000" stroke-width="0.35 px" style="stroke-width:0.35;stroke-miterlimit:4;stroke-dasharray:none;fill:none;fill-rule: evenodd "/>
<path id="Sketch041_w0003"  d="M 76.1023102113571 -83.17539925153194 L 76.10231021135709 -80.17539925153191 L 73.50423400000378 -78.67539925153189 L 70.90615778865043 -80.17539925153187 L 70.90615778865043 -83.17539925153189 L 73.50423400000375 -84.6753992515319 L 76.1023102113571 -83.17539925153194 " stroke="#000000" stroke-width="0.35 px" style="stroke-width:0.35;stroke-miterlimit:4;stroke-dasharray:none;fill:none;fill-rule: evenodd "/>
<path id="Sketch041_w0004"  d="M 157.0245351405912 -77.09123041201052 L 157.0245351405912 -74.09123041201052 L 154.4264589292379 -72.59123041201052 L 151.82838271788458 -74.09123041201052 L 151.82838271788458 -77.09123041201052 L 154.4264589292379 -78.59123041201052 L 157.0245351405912 -77.09123041201052 " stroke="#000000" stroke-width="0.35 px" style="stroke-width:0.35;stroke-miterlimit:4;stroke-dasharray:none;fill:none;fill-rule: evenodd "/>
<title>b'Sketch041'</title>
</g>
</svg>