<?xml version="1.0"?>
<!DOCTYPE svg PUBLIC "-//W3C//DTD SVG 1.1//EN" "http://www.w3.org/Graphics/SVG/1.1/DTD/svg11.dtd">
<svg width="151.47586011693903mm" height="154.33782817014742mm" viewBox="0 0 151.47586011693903 154.33782817014742" xmlns="http://www.w3.org/2000/svg" version="1.1">
<g id="Sketch045" transform="translate(65.981025,63.818064) scale(1,-1)">
<path id="Sketch045_w0000"  d="M 81.00313219434857 59.27959808412195 L 84.00265682095821 59.33300233828069 L 84.00265682095821 62.33300625219801 L -49.495967821783495 59.955990601254065 A 15 15 0 0 1 -64.496 44.956L -64.4957508244789 -71.98570640250783 A 15 15 0 0 1 -49.4958 -86.9857L 66.00423400000375 -89.03470701369571 L 66.00423400000375 -73.04234724631074 L -48.46856700000051 -71.01156915079986 L -48.46856700000051 43.97435184744765 L 84.00265682095821 46.33290121320169 L 84.00977739090182 55.83312905442331 L 81.003132 55.779598 L 81.00313219434857 59.27959808412195 " stroke="#000000" stroke-width="0.35 px" style="stroke-width:0.35;stroke-miterlimit:4;stroke-dasharray:none;fill:none;fill-rule: evenodd "/>
<path id="Sketch045_w0001"  d="M -52.39768878864669 48.956229 L -52.39768878864669 51.956229 L -54.995765000000006 53.456229 L -57.59384121135332 51.956229 L -57.59384121135332 48.956229 L -54.995765000000006 47.456229 L -52.39768878864669 48.956229 " stroke="#000000" stroke-width="0.35 px" style="stroke-width:0.35;stroke-miterlimit:4;stroke-dasharray:none;fill:none;fill-rule: evenodd "/>
<path id="Sketch045_w0002"  d="M 76.10231021135706 53.14614393700943 L 76.10231021135706 56.14614393700943 L 73.50423400000375 57.64614393700943 L 70.90615778865043 56.14614393700943 L 70.90615778865043 53.14614393700943 L 73.50423400000375 51.64614393700943 L 76.10231021135706 53.14614393700943 " stroke="#000000" stroke-width="0.35 px" style="stroke-width:0.35;stroke-miterlimit:4;stroke-dasharray:none;fill:none;fill-rule: evenodd "/>
<path id="Sketch045_w0003"  d="M -52.39768878864617 -78.97394399999982 L -52.39768878864614 -75.97394399999997 L -54.99576500000028 -74.47394399999969 L -57.59384121135363 -75.97394400000002 L -57.59384121135363 -78.97394399999983 L -54.99576499999991 -80.47394400000009 L -52.39768878864617 -78.97394399999982 " stroke="#000000" stroke-width="0.35 px" style="stroke-width:0.35;stroke-miterlimit:4;stroke-dasharray:none;fill:none;fill-rule: evenodd "/>
<path id="Sketch045_w0004"  d="M -54.39768878864668 -15.008857500000001 L -54.39768878864668 -12.008857500000001 L -56.995765 -10.508857500000001 L -59.593841211353315 -12.008857500000001 L -59.593841211353315 -15.008857500000001 L -56.995765 -16.5088575 L -54.39768878864668 -15.008857500000001 " stroke="#000000" stroke-width="0.35 px" style="stroke-width:0.35;stroke-miterlimit:4;stroke-dasharray:none;fill:none;fill-rule: evenodd "/>
<title>b'Sketch045'</title>
</g>
</svg>