<?xml version="1.0"?>
<!DOCTYPE svg PUBLIC "-//W3C//DTD SVG 1.1//EN" "http://www.w3.org/Graphics/SVG/1.1/DTD/svg11.dtd">
<svg width="123.47455776436566mm" height="155.58229776865304mm" viewBox="0 0 123.47455776436566 155.58229776865304" xmlns="http://www.w3.org/2000/svg" version="1.1">
<g id="Sketch047" transform="translate(-79.793699,64.282002) scale(1,-1)">
<path id="Sketch047_w0000"  d="M 81.0042340000037 -73.30893104608269 L 125.47791799999999 -74.10075115739008 A 60.5916 60.5916 0 0 1 125.476 47.0825L 117.99679388247438 46.947708639664654 L 118.00391445241799 56.4383690360387 L 120.996794 56.491655 L 120.99679388247438 59.99165480692137 L 117.99679388247438 59.93824208904983 L 117.99679388247438 62.93829035944481 L 125.47629800000003 63.071467 A 76.5806 76.5806 0 1 0 125.477 -90.0898L 81.0042340000037 -89.30081102413834 L 81.0042340000037 -73.30893104608269 " stroke="#000000" stroke-width="0.35 px" style="stroke-width:0.35;stroke-miterlimit:4;stroke-dasharray:none;fill:none;fill-rule: evenodd "/>
<path id="Sketch047_w0001"  d="M 157.02453514059158 47.07293641201018 L 157.02453514059144 50.07293641201026 L 154.42645892923815 51.572936412010556 L 151.8283827178846 50.07293641201055 L 151.8283827178846 47.0729364120105 L 154.426458929238 45.5729364120105 L 157.02453514059158 47.07293641201018 " stroke="#000000" stroke-width="0.35 px" style="stroke-width:0.35;stroke-miterlimit:4;stroke-dasharray:none;fill:none;fill-rule: evenodd "/>
<path id="Sketch047_w0002"  d="M 196.5751842113533 -15.009147 L 196.5751842113533 -12.009147 L 193.977108 -10.509147 L 191.37903178864667 -12.009147 L 191.37903178864667 -15.009147 L 193.977108 -16.509147000000002 L 196.5751842113533 -15.009147 " stroke="#000000" stroke-width="0.35 px" style="stroke-width:0.35;stroke-miterlimit:4;stroke-dasharray:none;fill:none;fill-rule: evenodd "/>
<path id="Sketch047_w0003"  d="M 157.0245351405912 -77.09123041201052 L 157.0245351405912 -74.09123041201052 L 154.4264589292379 -72.59123041201052 L 151.82838271788458 -74.09123041201052 L 151.82838271788458 -77.09123041201052 L 154.4264589292379 -78.59123041201052 L 157.0245351405912 -77.09123041201052 " stroke="#000000" stroke-width="0.35 px" style="stroke-width:0.35;stroke-miterlimit:4;stroke-dasharray:none;fill:none;fill-rule: evenodd "/>
<title>b'Sketch047'</title>
</g>
</svg>