<?xml version="1.0"?>
<!DOCTYPE svg PUBLIC "-//W3C//DTD SVG 1.1//EN" "http://www.w3.org/Graphics/SVG/1.1/DTD/svg11.dtd">
<svg width="271.50913093382917mm" height="89.4043224515926mm" viewBox="0 0 271.50913093382917 89.4043224515926" xmlns="http://www.w3.org/2000/svg" version="1.1">
<g id="Sketch039" transform="translate(67.157700,-3.347293) scale(1,-1)">
<path id="Sketch039_w0000"  d="M -64.49584541724684 -21.0088575 L -48.46856700000051 -21.0088575 L -48.46856700000051 -71.01156915079986 L 125.47710799999999 -74.10853956908025 A 60.5994 60.5994 0 0 1 185.611 -6.00915L 201.6895770668994 -6.009147000000004 A 76.5806 76.5806 0 0 0 125.477 -90.0898L -49.4957508244789 -86.9857064025078 A 15 15 0 0 0 -64.4958 -71.9857L -64.49584541724684 -21.0088575 " stroke="#000000" stroke-width="0.35 px" style="stroke-width:0.35;stroke-miterlimit:4;stroke-dasharray:none;fill:none;fill-rule: evenodd "/>
<path id="Sketch039_w0001"  d="M -52.39768878864668 -78.973944 L -52.39768878864668 -75.973944 L -54.995765 -74.473944 L -57.593841211353315 -75.973944 L -57.593841211353315 -78.973944 L -54.995765 -80.473944 L -52.39768878864668 -78.973944 " stroke="#000000" stroke-width="0.35 px" style="stroke-width:0.35;stroke-miterlimit:4;stroke-dasharray:none;fill:none;fill-rule: evenodd "/>
<path id="Sketch039_w0002"  d="M 76.10231021135706 -83.17539925153189 L 76.10231021135706 -80.17539925153189 L 73.50423400000375 -78.67539925153189 L 70.90615778865043 -80.17539925153189 L 70.90615778865043 -83.17539925153189 L 73.50423400000375 -84.67539925153189 L 76.10231021135706 -83.17539925153189 " stroke="#000000" stroke-width="0.35 px" style="stroke-width:0.35;stroke-miterlimit:4;stroke-dasharray:none;fill:none;fill-rule: evenodd "/>
<path id="Sketch039_w0003"  d="M 157.0245351405912 -77.09123041201052 L 157.0245351405912 -74.09123041201052 L 154.4264589292379 -72.59123041201052 L 151.82838271788458 -74.09123041201052 L 151.82838271788458 -77.09123041201052 L 154.4264589292379 -78.59123041201052 L 157.0245351405912 -77.09123041201052 " stroke="#000000" stroke-width="0.35 px" style="stroke-width:0.35;stroke-miterlimit:4;stroke-dasharray:none;fill:none;fill-rule: evenodd "/>
<path id="Sketch039_w0004"  d="M 196.5751842113533 -15.009147 L 196.5751842113533 -12.009147 L 193.977108 -10.509147 L 191.37903178864667 -12.009147 L 191.37903178864667 -15.009147 L 193.977108 -16.509147000000002 L 196.5751842113533 -15.009147 " stroke="#000000" stroke-width="0.35 px" style="stroke-width:0.35;stroke-miterlimit:4;stroke-dasharray:none;fill:none;fill-rule: evenodd "/>
<title>b'Sketch039'</title>
</g>
</svg>