<?xml version="1.0"?>
<!DOCTYPE svg PUBLIC "-//W3C//DTD SVG 1.1//EN" "http://www.w3.org/Graphics/SVG/1.1/DTD/svg11.dtd">
<svg width="271.8847636225886mm" height="158.49230180508877mm" viewBox="0 0 271.8847636225886 158.49230180508877" xmlns="http://www.w3.org/2000/svg" version="1.1">
<g id="Sketch043" transform="translate(67.161505,65.737004) scale(1,-1)">
<path id="Sketch043_w0000"  d="M -49.49596782178349 59.955990601254065 A 15 15 0 0 1 -64.496 44.956L -64.4957508244789 -71.98570640250782 A 15 15 0 0 1 -49.4958 -86.9857L 125.47650499997401 -90.08976100190968 A 76.5806 76.5806 0 1 1 125.476 63.0715L -49.49596782178349 59.955990601254065 " stroke="#000000" stroke-width="0.35 px" style="stroke-width:0.35;stroke-miterlimit:4;stroke-dasharray:none;fill:none;fill-rule: evenodd "/>
<path id="Sketch043_w0001"  d="M 125.47791799999999 -74.10075115739008 A 60.5916 60.5916 0 0 1 125.476 47.0825L 73.50423400000375 46.14614393700943 L 73.50423400000375 -73.17539925153189 L 125.47791799999999 -74.10075115739008 " stroke="#000000" stroke-width="0.35 px" style="stroke-width:0.35;stroke-miterlimit:4;stroke-dasharray:none;fill:none;fill-rule: evenodd "/>
<path id="Sketch043_w0002"  d="M -52.39768878864668 48.956228999999986 L -52.39768878864668 51.95622899999999 L -54.995765 53.456229 L -57.59384121135332 51.956229 L -57.59384121135332 48.956229 L -54.995765000000006 47.456229 L -52.39768878864668 48.956228999999986 " stroke="#000000" stroke-width="0.35 px" style="stroke-width:0.35;stroke-miterlimit:4;stroke-dasharray:none;fill:none;fill-rule: evenodd "/>
<path id="Sketch043_w0003"  d="M -54.39768878864668 -15.008857500000001 L -54.39768878864668 -12.008857500000001 L -56.995765 -10.508857500000001 L -59.593841211353315 -12.008857500000001 L -59.593841211353315 -15.008857500000001 L -56.995765 -16.5088575 L -54.39768878864668 -15.008857500000001 " stroke="#000000" stroke-width="0.35 px" style="stroke-width:0.35;stroke-miterlimit:4;stroke-dasharray:none;fill:none;fill-rule: evenodd "/>
<path id="Sketch043_w0004"  d="M -52.39768878864663 -78.97394399999997 L -52.39768878864664 -75.97394399999997 L -54.995764999999956 -74.47394399999996 L -57.59384121135335 -75.973944 L -57.59384121135335 -78.97394399999999 L -54.995765000000056 -80.47394400000005 L -52.39768878864663 -78.97394399999997 " stroke="#000000" stroke-width="0.35 px" style="stroke-width:0.35;stroke-miterlimit:4;stroke-dasharray:none;fill:none;fill-rule: evenodd "/>
<path id="Sketch043_w0005"  d="M 76.10231021135706 -83.17539925153189 L 76.10231021135706 -80.17539925153189 L 73.50423400000375 -78.67539925153189 L 70.90615778865043 -80.17539925153189 L 70.90615778865043 -83.17539925153189 L 73.50423400000375 -84.67539925153189 L 76.10231021135706 -83.17539925153189 " stroke="#000000" stroke-width="0.35 px" style="stroke-width:0.35;stroke-miterlimit:4;stroke-dasharray:none;fill:none;fill-rule: evenodd "/>
<path id="Sketch043_w0006"  d="M 157.02453514059334 -77.09123041203364 L 157.02453514061617 -74.0912304120446 L 154.4264589292176 -72.59123041200834 L 151.82838271787764 -74.09123041201002 L 151.82838271787764 -77.09123041199882 L 154.42645892924523 -78.59123041202052 L 157.02453514059334 -77.09123041203364 " stroke="#000000" stroke-width="0.35 px" style="stroke-width:0.35;stroke-miterlimit:4;stroke-dasharray:none;fill:none;fill-rule: evenodd "/>
<path id="Sketch043_w0007"  d="M 196.5751842113533 -15.009147 L 196.5751842113533 -12.009147 L 193.977108 -10.509147 L 191.37903178864667 -12.009147 L 191.37903178864667 -15.009147 L 193.977108 -16.509147000000002 L 196.5751842113533 -15.009147 " stroke="#000000" stroke-width="0.35 px" style="stroke-width:0.35;stroke-miterlimit:4;stroke-dasharray:none;fill:none;fill-rule: evenodd "/>
<path id="Sketch043_w0008"  d="M 157.02453514059133 47.0729364120106 L 157.02453514059138 50.0729364120107 L 154.42645892923795 51.57293641201057 L 151.8283827178846 50.07293641201053 L 151.8283827178846 47.0729364120105 L 154.426458929238 45.57293641201053 L 157.02453514059133 47.0729364120106 " stroke="#000000" stroke-width="0.35 px" style="stroke-width:0.35;stroke-miterlimit:4;stroke-dasharray:none;fill:none;fill-rule: evenodd "/>
<path id="Sketch043_w0009"  d="M 76.10231021135706 53.14614393700943 L 76.10231021135706 56.14614393700943 L 73.50423400000375 57.64614393700943 L 70.90615778865043 56.14614393700943 L 70.90615778865043 53.14614393700943 L 73.50423400000375 51.64614393700943 L 76.10231021135706 53.14614393700943 " stroke="#000000" stroke-width="0.35 px" style="stroke-width:0.35;stroke-miterlimit:4;stroke-dasharray:none;fill:none;fill-rule: evenodd "/>
<path id="Sketch043_w0010"  d="M 120.996794 56.491655 L 120.996794 59.991655 L 81.003132 59.279598 L 81.003132 55.779598 L 120.996794 56.491655 " stroke="#000000" stroke-width="0.35 px" style="stroke-width:0.35;stroke-miterlimit:4;stroke-dasharray:none;fill:none;fill-rule: evenodd "/>
<title>b'Sketch043'</title>
</g>
</svg>