<?xml version="1.0"?>
<!DOCTYPE svg PUBLIC "-//W3C//DTD SVG 1.1//EN" "http://www.w3.org/Graphics/SVG/1.1/DTD/svg11.dtd">
<svg width="138.77455776436557mm" height="155.88229776865305mm" viewBox="0 0 138.77455776436557 155.88229776865305" xmlns="http://www.w3.org/2000/svg" version="1.1">
<g id="Sketch044" transform="translate(-64.643699,64.432002) scale(1,-1)">
<path id="Sketch044_w0000"  d="M 154.4264589292379 -78.59123041201053 L 157.0245351405912 -77.09123041201053 L 157.0245351405912 -74.09123041201052 L 154.4264589292379 -72.5912304120105 L 151.82838271788458 -74.0912304120105 L 151.82838271788458 -77.09123041201052 L 154.4264589292379 -78.59123041201053 " stroke="#000000" stroke-width="0.35 px" style="stroke-width:0.35;stroke-miterlimit:4;stroke-dasharray:none;fill:none;fill-rule: evenodd "/>
<path id="Sketch044_w0001"  d="M 76.10231021135706 -83.17539925153189 L 76.10231021135706 -80.17539925153189 L 73.50423400000375 -78.67539925153189 L 70.90615778865043 -80.17539925153189 L 70.90615778865043 -83.17539925153189 L 73.50423400000375 -84.67539925153189 L 76.10231021135706 -83.17539925153189 " stroke="#000000" stroke-width="0.35 px" style="stroke-width:0.35;stroke-miterlimit:4;stroke-dasharray:none;fill:none;fill-rule: evenodd "/>
<path id="Sketch044_w0002"  d="M 125.47791799999999 -74.10075115739008 L 66.00423400000375 -73.04186745698108 L 66.00423400000375 -89.034707013696 L 125.47650499997401 -90.08976100190968 A 76.5806 76.5806 0 1 1 125.476 63.0715L 117.99679388247438 62.93829035944481 L 117.99679388247438 59.93824208904982 L 120.99679388247438 59.99165480692137 L 120.996794 56.491655 L 118.00391445241799 56.4383690360387 L 117.99679388247438 46.94770863966464 L 125.47629800000003 47.08245715739008 A 60.5916 60.5916 0 0 0 125.478 -74.1008" stroke="#000000" stroke-width="0.35 px" style="stroke-width:0.35;stroke-miterlimit:4;stroke-dasharray:none;fill:none;fill-rule: evenodd "/>
<path id="Sketch044_w0003"  d="M 157.02453514059124 47.07293641201053 L 157.02453514059124 50.07293641201053 L 154.42645892923792 51.57293641201053 L 151.8283827178846 50.07293641201053 L 151.8283827178846 47.07293641201053 L 154.42645892923792 45.57293641201053 L 157.02453514059124 47.07293641201053 " stroke="#000000" stroke-width="0.35 px" style="stroke-width:0.35;stroke-miterlimit:4;stroke-dasharray:none;fill:none;fill-rule: evenodd "/>
<path id="Sketch044_w0004"  d="M 196.5751842113533 -15.009147 L 196.5751842113533 -12.009147 L 193.977108 -10.509147 L 191.37903178864667 -12.009147 L 191.37903178864667 -15.009147 L 193.977108 -16.509147000000002 L 196.5751842113533 -15.009147 " stroke="#000000" stroke-width="0.35 px" style="stroke-width:0.35;stroke-miterlimit:4;stroke-dasharray:none;fill:none;fill-rule: evenodd "/>
<title>b'Sketch044'</title>
</g>
</svg>