<?xml version="1.0"?>
<!DOCTYPE svg PUBLIC "-//W3C//DTD SVG 1.1//EN" "http://www.w3.org/Graphics/SVG/1.1/DTD/svg11.dtd">
<svg width="271.8847636225886mm" height="89.41168780080508mm" viewBox="0 0 271.8847636225886 89.41168780080508" xmlns="http://www.w3.org/2000/svg" version="1.1">
<g id="Sketch042" transform="translate(67.161505,65.737004) scale(1,-1)">
<path id="Sketch042_w0000"  d="M 185.59151151361453 -21.009147000000027 L 201.6895770668994 -21.009147 A 76.5806 76.5806 0 0 1 125.476 63.0715L -49.49596782178349 59.95599060125406 A 15 15 0 0 1 -64.496 44.956L -64.4959678217835 -6.008857500000005 L -48.46856700000051 -6.008857500000005 L -48.46856700000051 43.97435184744765 L 125.47629800000001 47.071307844294225 A 60.5805 60.5805 0 0 0 185.592 -21.0091" stroke="#000000" stroke-width="0.35 px" style="stroke-width:0.35;stroke-miterlimit:4;stroke-dasharray:none;fill:none;fill-rule: evenodd "/>
<path id="Sketch042_w0001"  d="M 196.57518421135563 -15.009146999996172 L 196.57518421135464 -12.00914699999916 L 193.97710800000337 -10.509146999999887 L 191.37903178864477 -12.009147000003258 L 191.37903178864477 -15.009147000000226 L 193.977107999996 -16.5091470000004 L 196.57518421135563 -15.009146999996172 " stroke="#000000" stroke-width="0.35 px" style="stroke-width:0.35;stroke-miterlimit:4;stroke-dasharray:none;fill:none;fill-rule: evenodd "/>
<path id="Sketch042_w0002"  d="M 157.02453514059124 47.07293641201053 L 157.02453514059124 50.07293641201053 L 154.42645892923792 51.57293641201053 L 151.8283827178846 50.07293641201053 L 151.8283827178846 47.07293641201053 L 154.42645892923792 45.57293641201053 L 157.02453514059124 47.07293641201053 " stroke="#000000" stroke-width="0.35 px" style="stroke-width:0.35;stroke-miterlimit:4;stroke-dasharray:none;fill:none;fill-rule: evenodd "/>
<path id="Sketch042_w0003"  d="M 76.10231021135706 53.14614393700943 L 76.10231021135706 56.14614393700943 L 73.50423400000375 57.64614393700943 L 70.90615778865043 56.14614393700943 L 70.90615778865043 53.14614393700943 L 73.50423400000375 51.64614393700943 L 76.10231021135706 53.14614393700943 " stroke="#000000" stroke-width="0.35 px" style="stroke-width:0.35;stroke-miterlimit:4;stroke-dasharray:none;fill:none;fill-rule: evenodd "/>
<path id="Sketch042_w0004"  d="M -52.39768878864669 48.956229 L -52.39768878864669 51.956229 L -54.995765000000006 53.456229 L -57.59384121135332 51.956229 L -57.59384121135332 48.956229 L -54.995765000000006 47.456229 L -52.39768878864669 48.956229 " stroke="#000000" stroke-width="0.35 px" style="stroke-width:0.35;stroke-miterlimit:4;stroke-dasharray:none;fill:none;fill-rule: evenodd "/>
<title>b'Sketch042'</title>
</g>
</svg>