<?xml version="1.0"?>
<!DOCTYPE svg PUBLIC "-//W3C//DTD SVG 1.1//EN" "http://www.w3.org/Graphics/SVG/1.1/DTD/svg11.dtd">
<svg width="271.8846387699612mm" height="89.41168535271434mm" viewBox="0 0 271.8846387699612 89.41168535271434" xmlns="http://www.w3.org/2000/svg" version="1.1">
<g id="Sketch049" transform="translate(67.161381,-3.343611) scale(1,-1)">
<path id="Sketch049_w0000"  d="M -64.4957508244789 -71.98570640250783 A 15 15 0 0 1 -49.4958 -86.9857L 125.47650499997401 -90.08976100190968 A 76.5806 76.5806 0 0 1 201.69 -6.00915L 185.60274724834355 -6.009146999999991 A 60.5916 60.5916 0 0 0 125.478 -74.1008L -48.468567 -71.01156915079986 L -48.46856700000051 -21.008857500000005 L -64.49584541724685 -21.008857500000005 L -64.4957508244789 -71.98570640250783 " stroke="#000000" stroke-width="0.35 px" style="stroke-width:0.35;stroke-miterlimit:4;stroke-dasharray:none;fill:none;fill-rule: evenodd "/>
<path id="Sketch049_w0001"  d="M -52.397688788643194 -78.97394400000397 L -52.397688788642085 -75.97394400000574 L -54.99576500001252 -74.47394399999922 L -57.593841211360605 -75.97394400000167 L -57.593841211360605 -78.97394399999834 L -54.99576499999287 -80.47394400000427 L -52.397688788643194 -78.97394400000397 " stroke="#000000" stroke-width="0.35 px" style="stroke-width:0.35;stroke-miterlimit:4;stroke-dasharray:none;fill:none;fill-rule: evenodd "/>
<path id="Sketch049_w0002"  d="M 76.10231021135706 -83.17539925153189 L 76.10231021135706 -80.17539925153189 L 73.50423400000375 -78.67539925153189 L 70.90615778865043 -80.17539925153189 L 70.90615778865043 -83.17539925153189 L 73.50423400000375 -84.67539925153189 L 76.10231021135706 -83.17539925153189 " stroke="#000000" stroke-width="0.35 px" style="stroke-width:0.35;stroke-miterlimit:4;stroke-dasharray:none;fill:none;fill-rule: evenodd "/>
<path id="Sketch049_w0003"  d="M 157.0245351405912 -77.09123041201052 L 157.0245351405912 -74.09123041201052 L 154.4264589292379 -72.59123041201052 L 151.82838271788458 -74.09123041201052 L 151.82838271788458 -77.09123041201052 L 154.4264589292379 -78.59123041201052 L 157.0245351405912 -77.09123041201052 " stroke="#000000" stroke-width="0.35 px" style="stroke-width:0.35;stroke-miterlimit:4;stroke-dasharray:none;fill:none;fill-rule: evenodd "/>
<path id="Sketch049_w0004"  d="M 196.5751842113533 -15.00914700000002 L 196.5751842113533 -12.00914700000001 L 193.977108 -10.509146999999984 L 191.37903178864667 -12.009146999999983 L 191.37903178864667 -15.009146999999993 L 193.977108 -16.50914700000002 L 196.5751842113533 -15.00914700000002 " stroke="#000000" stroke-width="0.35 px" style="stroke-width:0.35;stroke-miterlimit:4;stroke-dasharray:none;fill:none;fill-rule: evenodd "/>
<title>b'Sketch049'</title>
</g>
</svg>