<?xml version="1.0"?>
<!DOCTYPE svg PUBLIC "-//W3C//DTD SVG 1.1//EN" "http://www.w3.org/Graphics/SVG/1.1/DTD/svg11.dtd">
<svg width="114.24000000000001mm" height="113.14993454391968mm" viewBox="0 0 114.24000000000001 113.14993454391968" xmlns="http://www.w3.org/2000/svg" version="1.1">
<g id="Sketch022" transform="translate(45.487748,43.066106) scale(1,-1)">
<path id="Sketch022_w0000"  d="M -6.852744999999999 31.155627 L 39.069999 31.155627 L 39.069999 16.084225 L -6.852744999999999 16.084225 L -6.852744999999999 31.155627 " stroke="#000000" stroke-width="0.35 px" style="stroke-width:0.35;stroke-miterlimit:4;stroke-dasharray:none;fill:none;fill-rule: evenodd "/>
<path id="Sketch022_w0001"  d="M -6.852744999999999 -8.915775 L -2.8527449999999988 -8.915775 L 39.069999 -8.915775 L 39.069999 6.155627 L -2.8527449999999988 6.155627 L -6.852744999999999 6.155627 L -6.852744999999999 -8.915775 " stroke="#000000" stroke-width="0.35 px" style="stroke-width:0.35;stroke-miterlimit:4;stroke-dasharray:none;fill:none;fill-rule: evenodd "/>
<path id="Sketch022_w0002"  d="M -2.8527449999999988 -18.844373 L 39.069999 -18.844373 L 39.069999 -33.915775 L -2.8527449999999988 -33.915775 L -2.8527449999999988 -18.844373 " stroke="#000000" stroke-width="0.35 px" style="stroke-width:0.35;stroke-miterlimit:4;stroke-dasharray:none;fill:none;fill-rule: evenodd "/>
<path id="Sketch022_w0003"  d="M -2.8527449999999988 -43.844373000000004 L 39.069999 -43.844373000000004 L 39.069999 -58.915775 L -2.8527449999999988 -58.915775 L -2.8527449999999988 -43.844373000000004 " stroke="#000000" stroke-width="0.35 px" style="stroke-width:0.35;stroke-miterlimit:4;stroke-dasharray:none;fill:none;fill-rule: evenodd "/>
<path id="Sketch022_w0004"  d="M -44.3677480800187 39.99113919282948 L 67.63225191998131 41.94610646478986 L 67.6322519199813 -68.96382807912983 L -44.3677480800187 -67.00886080717052 L -44.3677480800187 39.99113919282948 " stroke="#000000" stroke-width="0.35 px" style="stroke-width:0.35;stroke-miterlimit:4;stroke-dasharray:none;fill:none;fill-rule: evenodd "/>
<title>b'Sketch022'</title>
</g>
</svg>