<?xml version="1.0" encoding="UTF-8" standalone="no"?>
<svg
   xmlns:dc="http://purl.org/dc/elements/1.1/"
   xmlns:cc="http://creativecommons.org/ns#"
   xmlns:rdf="http://www.w3.org/1999/02/22-rdf-syntax-ns#"
   xmlns:svg="http://www.w3.org/2000/svg"
   xmlns="http://www.w3.org/2000/svg"
   xmlns:sodipodi="http://sodipodi.sourceforge.net/DTD/sodipodi-0.dtd"
   xmlns:inkscape="http://www.inkscape.org/namespaces/inkscape"
   sodipodi:docname="i3_base.svg"
   inkscape:version="1.0 (4035a4f, 2020-05-01)"
   id="svg2352"
   version="1.1"
   viewBox="0 0 262.54337 131.98669"
   height="131.98669mm"
   width="262.54337mm">
  <defs
     id="defs2346" />
  <sodipodi:namedview
     inkscape:window-maximized="0"
     inkscape:window-y="23"
     inkscape:window-x="0"
     inkscape:window-height="943"
     inkscape:window-width="1252"
     showborder="false"
     fit-margin-bottom="0"
     fit-margin-right="0"
     fit-margin-left="0"
     fit-margin-top="0"
     showgrid="false"
     inkscape:document-rotation="0"
     inkscape:current-layer="layer1"
     inkscape:document-units="mm"
     inkscape:cy="849.42368"
     inkscape:cx="370.43067"
     inkscape:zoom="0.35"
     inkscape:pageshadow="2"
     inkscape:pageopacity="0.0"
     borderopacity="1.0"
     bordercolor="#666666"
     pagecolor="#ffffff"
     id="base" />
  <metadata
     id="metadata2349">
    <rdf:RDF>
      <cc:Work
         rdf:about="">
        <dc:format>image/svg+xml</dc:format>
        <dc:type
           rdf:resource="http://purl.org/dc/dcmitype/StillImage" />
        <dc:title></dc:title>
      </cc:Work>
    </rdf:RDF>
  </metadata>
  <g
     transform="translate(-7.8235531,76.576683)"
     id="layer1"
     inkscape:groupmode="layer"
     inkscape:label="Layer 1">
    <path
       d="m 206.88418,-71.254594 -60.21182,1.96681 V 48.237357 l 60.21182,1.85104 v -0.0398 c 0.0399,2.1e-4 0.08,5.3e-4 0.11989,5.3e-4 32.0512,-5e-5 58.03356,-27.1463 58.03367,-60.63248 1.6e-4,-33.486352 -25.98226,-60.632372 -58.03367,-60.632472 -0.04,1.31e-4 -0.0799,0 -0.11989,0 z M 138.67233,47.991377 V -69.026794 l -125.519986,4.10001 V 44.132697 Z M 7.9485531,-69.577844 V 48.815637 L 209.6853,55.280947 v -0.0432 c 0.0416,2.4e-4 0.0832,5.3e-4 0.12473,5.3e-4 33.37557,-1.1e-4 60.43179,-29.46932 60.43189,-65.821471 1.8e-4,-36.352369 -27.05611,-65.821911 -60.43189,-65.822021 -0.0416,1.4e-4 -0.0831,3.3e-4 -0.12473,5.61e-4 v -0.0427 z"
       style="opacity:0.999;fill:none;fill-opacity:1;fill-rule:evenodd;stroke:#000000;stroke-width:0.25;stroke-linecap:round;stroke-miterlimit:4;stroke-dasharray:none;stroke-opacity:1;paint-order:fill markers stroke;stop-color:#000000"
       id="path1623-6" />
  </g>
</svg>
